<?xml version="1.0" encoding="UTF-8" standalone="no"?>
<svg
   xmlns:dc="http://purl.org/dc/elements/1.1/"
   xmlns:cc="http://creativecommons.org/ns#"
   xmlns:rdf="http://www.w3.org/1999/02/22-rdf-syntax-ns#"
   xmlns:svg="http://www.w3.org/2000/svg"
   xmlns="http://www.w3.org/2000/svg"
   id="svg953"
   version="1.1"
   viewBox="0 0 542.84851 528.40753"
   height="528.40753mm"
   width="542.84851mm">
  <defs
     id="defs947" />
  <metadata
     id="metadata950">
    <rdf:RDF>
      <cc:Work
         rdf:about="">
        <dc:format>image/svg+xml</dc:format>
        <dc:type
           rdf:resource="http://purl.org/dc/dcmitype/StillImage" />
        <dc:title></dc:title>
      </cc:Work>
    </rdf:RDF>
  </metadata>
  <g
     transform="translate(95.013389,72.115772)"
     id="layer1">
    <path
       id="path1509"
       d="M 57.735864,-6.5148814 49.609374,-17.759673 C 71.963695,-37.85092 95.715233,-54.548928 119.81845,-70.392858 l 30.52158,51.782739 -6.3311,3.96875 -23.62351,9.9218744 -5.19718,2.3623513 -21.261158,16.3474703 -3.401785,1.984375 -14.079614,6.614583 C 70.399131,12.729518 65.148756,2.2062689 57.735864,-6.5148814 Z"
       style="fill:#f0f0f0;fill-opacity:1;fill-rule:evenodd;stroke:#000000;stroke-width:0.80000001;stroke-linecap:round;stroke-linejoin:round;stroke-miterlimit:4;stroke-dasharray:none;stroke-opacity:1" />
    <path
       id="path1513"
       d="m 150.34003,-18.610119 9.28669,-5.246949 -9.00321,-14.124332 -10.86681,-16.630951 -10.96131,-17.103424 -8.97694,1.322917 4.91369,8.598958 5.10268,8.409972 z"
       style="fill:#2b4288;fill-opacity:1;fill-rule:evenodd;stroke:#000000;stroke-width:0.80000001;stroke-linecap:round;stroke-linejoin:round;stroke-miterlimit:4;stroke-dasharray:none;stroke-opacity:1" />
    <g
       id="head">
      <path
         style="fill:#84a8e2;fill-opacity:1;fill-rule:evenodd;stroke:#000000;stroke-width:0.80000001;stroke-linecap:round;stroke-linejoin:round;stroke-miterlimit:4;stroke-dasharray:none;stroke-opacity:1"
         d="m 51.877232,-14.452381 c 15.316204,-9.728189 31.194239,-18.424228 46.585565,-28.253721 l -4.346726,-2.55134 30.616069,-16.536458 5.10268,8.409972 -25.3244,11.622767 3.68526,1.984375 C 92.513767,-28.056337 74.798421,-17.917448 56.885416,-7.9322921 Z"
         id="path1511" />
      <path
         style="fill:#dbb5e6;fill-opacity:1;fill-rule:evenodd;stroke:#000000;stroke-width:0.80000001;stroke-linecap:round;stroke-linejoin:round;stroke-miterlimit:4;stroke-dasharray:none;stroke-opacity:1"
         d="m 76.445683,22.589285 -4.630208,14.835564 c -6.665105,11.359948 -9.7194,21.728694 -3.590774,29.576638 9.850833,8.534784 19.952913,7.270915 30.049107,6.236607 31.099722,-11.040049 55.453102,-30.038178 74.461312,-56.696428 3.23217,-9.7673064 5.84535,-19.4065459 1.88988,-27.686756 -3.40205,-7.898895 -8.72892,-12.252061 -16.91444,-11.339285 l -7.37053,3.874256 -6.3311,3.96875 -23.43453,9.8273806 -5.38616,2.4568451 -21.26116,16.3474703 -3.401785,1.984375 z"
         id="path1515" />
      <path
         style="fill:#000000;fill-opacity:1;fill-rule:evenodd;stroke:#000000;stroke-width:0.80000001;stroke-linecap:round;stroke-linejoin:round;stroke-miterlimit:4;stroke-dasharray:none;stroke-opacity:1"
         d="m 145.70982,-35.808035 c 2.50895,-2.083148 4.38869,-2.59326 6.42559,-3.496282 -4.34751,-5.196778 -8.41575,-10.533194 -10.77232,-16.725444 -1.89056,1.573542 -3.93823,2.832864 -6.33109,3.401786 z"
         id="path1517" />
      <path
         style="fill:#f0f0f0;fill-opacity:1;fill-rule:evenodd;stroke:#000000;stroke-width:0.80000001;stroke-linecap:round;stroke-linejoin:round;stroke-miterlimit:4;stroke-dasharray:none;stroke-opacity:1"
         d="m 141.36309,-56.029761 c -0.4872,-3.086492 -1.09186,-6.209127 1.6064,-8.315476 3.56275,-1.333834 7.15043,-1.159742 10.96131,1.795386 5.80447,4.44765 7.92585,9.670688 8.97694,15.119048 0.4683,4.390499 0.79531,8.663257 -1.7009,10.583333 -3.02381,0.985151 -6.04762,0.820297 -9.07143,-2.456847 -5.03053,-5.313374 -8.51274,-10.908261 -10.77232,-16.725444 z"
         id="path1521" />
      <path
         style="fill:#eca725;fill-opacity:1;fill-rule:evenodd;stroke:none;stroke-width:0.26458332px;stroke-linecap:butt;stroke-linejoin:miter;stroke-opacity:1"
         d="m 142.68601,-53.950893 c 1.07777,-3.69968 3.33329,-4.454974 6.4256,-3.118303 5.24259,2.037626 6.95922,6.543423 7.18154,12.095237 -0.5879,3.393149 -1.5328,6.102064 -5.10268,3.779763 -3.19496,-4.036148 -6.52468,-7.991438 -8.50446,-12.756697 z"
         id="path1523" />
      <path
         style="fill:#f0f0f0;fill-opacity:1;fill-rule:evenodd;stroke:#000000;stroke-width:0.80000001;stroke-linecap:round;stroke-linejoin:round;stroke-miterlimit:4;stroke-dasharray:none;stroke-opacity:1"
         d="m 57.735864,-6.5148814 c -4.939148,-1.0775872 -7.122044,1.6165402 -7.276042,7.08705354 1.5473,7.04457876 4.726009,12.13146686 8.787945,16.15848186 5.199841,3.175427 4.045359,1.585111 5.669642,2.078869 1.039435,-1.164186 2.07887,-4.694639 3.118305,-10.3943449 C 65.178244,3.0066314 61.596591,-1.858778 57.735864,-6.5148814 Z"
         id="path1525" />
      <path
         style="fill:#eca725;fill-opacity:1;fill-rule:evenodd;stroke:none;stroke-width:0.26458332px;stroke-linecap:butt;stroke-linejoin:miter;stroke-opacity:1"
         d="m 62.838541,1.1391364 c -3.087115,0.2240824 -4.313126,3.4951691 -2.173364,6.7090774 1.291419,2.5524752 2.488344,4.3770932 4.157739,5.6696432 2.870829,0.698969 2.372154,-3.094734 3.212798,-5.1026789 z"
         id="path1527" />
      <path
         style="fill:#eca725;fill-opacity:1;fill-rule:evenodd;stroke:#000000;stroke-width:0.80000001;stroke-linecap:round;stroke-linejoin:round;stroke-miterlimit:4;stroke-dasharray:none;stroke-opacity:1"
         d="M 68.319197,3.1235115 68.035714,8.4151781 C 67.042448,12.966282 66.385641,17.629538 63.216517,21.455356 l 8.598958,15.969493 c 5.719865,-1.387574 11.317437,-1.73567 16.536458,1.13393 1.409776,-5.440088 3.478033,-10.304006 6.898066,-13.985119 L 90.525295,15.974702 C 88.096227,13.409474 88.465297,9.7759063 87.406992,6.525297 78.38042,9.0327375 72.31601,7.657734 68.319197,3.1235115 Z"
         id="path1529" />
      <ellipse
         style="opacity:1;fill:#be293d;fill-opacity:1;fill-rule:nonzero;stroke:#000000;stroke-width:0.92171639;stroke-linecap:round;stroke-linejoin:round;stroke-miterlimit:4;stroke-dasharray:none;stroke-opacity:1;paint-order:normal"
         id="path1531"
         cx="79.563995"
         cy="21.975075"
         rx="8.8215828"
         ry="9.2468052" />
      <path
         style="fill:#eca725;fill-opacity:1;fill-rule:evenodd;stroke:#000000;stroke-width:0.80000001;stroke-linecap:round;stroke-linejoin:round;stroke-miterlimit:4;stroke-dasharray:none;stroke-opacity:1"
         d="m 109.71414,6.4112057 7.08264,-5.078121 -1.60854,-3.690228 C 109.93099,-7.7119726 104.59568,-13.671763 100.02562,-13.700826 89.945531,-9.5050104 92.108778,-2.4963885 91.606631,0.59809355 l 2.320449,13.39223345 1.287687,5.049364 c 7.580943,2.764801 13.323833,0.260532 18.241143,-4.6104 -2.6316,-5.7382947 -6.50812,-11.269105 -10.15624,-16.8379796 1.95431,0.8557781 4.28665,4.8409938 6.41447,8.8198943 z"
         id="path1533" />
      <path
         style="fill:none;fill-rule:evenodd;stroke:#000000;stroke-width:0.80000001;stroke-linecap:round;stroke-linejoin:round;stroke-miterlimit:4;stroke-dasharray:none;stroke-opacity:1"
         d="m 95.214767,19.039691 c 5.182443,-9.2814902 11.657663,-7.412812 18.241143,-4.6104"
         id="path1535" />
      <path
         style="fill:#eca725;fill-opacity:1;fill-rule:evenodd;stroke:#000000;stroke-width:0.80000001;stroke-linecap:round;stroke-linejoin:round;stroke-miterlimit:4;stroke-dasharray:none;stroke-opacity:1"
         d="m 142.60576,-14.641369 c -1.53219,-4.34143 -2.71607,-8.682859 -3.35834,-13.024289 -7.60768,5.004424 -12.86591,2.803901 -17.84024,-0.267269 0.84149,7.596446 -2.3848,12.752225 -4.94449,18.3079612 3.57307,3.8345321 7.04792,7.8041221 9.2208,13.5639284 4.47677,-1.0269753 8.95353,-0.9033538 13.4303,-0.334087 0.90868,-5.6101429 4.74044,-8.7147899 8.01808,-12.2943981 z"
         id="path1537" />
      <ellipse
         style="opacity:1;fill:#5065bb;fill-opacity:1;fill-rule:nonzero;stroke:#000000;stroke-width:0.977323;stroke-linecap:round;stroke-linejoin:round;stroke-miterlimit:4;stroke-dasharray:none;stroke-opacity:1;paint-order:normal"
         id="path1539"
         cx="131.42978"
         cy="-10.29314"
         rx="7.9962416"
         ry="8.9316845" />
      <path
         style="fill:none;fill-rule:evenodd;stroke:#000000;stroke-width:0.80000001;stroke-linecap:round;stroke-linejoin:round;stroke-miterlimit:4;stroke-dasharray:none;stroke-opacity:1"
         d="m 78.577241,47.771166 c 0.652183,4.671436 3.220353,8.159435 12.962572,7.216275 20.052957,-5.811645 34.970777,-22.820199 48.108517,-36.482289 5.9927,-7.350808 11.5831,-14.8199394 11.62622,-23.9206227"
         id="path1541" />
      <path
         style="fill:none;fill-rule:evenodd;stroke:#000000;stroke-width:0.80000001;stroke-linecap:round;stroke-linejoin:round;stroke-miterlimit:4;stroke-dasharray:none;stroke-opacity:1"
         d="m 145.39462,-1.6736974 c 3.36895,-3.4929929 7.4334,-5.2058903 12.89576,-3.340869"
         id="path1543" />
      <path
         style="fill:#dbb5e6;fill-opacity:1;fill-rule:evenodd;stroke:#000000;stroke-width:0.80000001;stroke-linecap:round;stroke-linejoin:round;stroke-miterlimit:4;stroke-dasharray:none;stroke-opacity:1"
         d="m 134.89025,54.575519 c 4.81861,5.550638 5.58013,13.556882 5.66964,21.969867 15.27843,-11.359418 29.53271,-23.818857 48.00298,-31.749999 -7.3324,-4.251062 -14.61549,-3.224958 -22.06436,-19.938245 -9.61848,12.123664 -19.92771,21.255122 -31.60826,29.718377 z"
         id="path1545" />
    </g>
    <path
       id="path1547"
       d="M 163.60236,59.297162 242.948,161.56116 288.45062,132.89651 271.76489,95.113466 258.01599,64.969865 C 251.31605,49.10699 242.911,33.623028 234.66264,18.104247 l -46.09977,26.69114 c -9.2438,3.946125 -17.51943,9.071824 -24.96051,14.501775 z"
       style="fill:#2b4288;fill-opacity:1;fill-rule:evenodd;stroke:#000000;stroke-width:0.80000001;stroke-linecap:round;stroke-linejoin:round;stroke-miterlimit:4;stroke-dasharray:none;stroke-opacity:1" />
    <path
       id="path1549"
       d="M 163.60236,59.297162 140.55989,76.545386 95.415221,116.59307 181.47601,189.82492 242.948,161.56116 Z"
       style="fill:#b2a6d8;fill-opacity:1;fill-rule:evenodd;stroke:#000000;stroke-width:0.80000001;stroke-linecap:round;stroke-linejoin:round;stroke-miterlimit:4;stroke-dasharray:none;stroke-opacity:1" />
    <path
       id="path1551"
       d="m 124.92113,102.15327 -6.80357,27.40328 27.78125,25.13541 27.97024,-25.60788 -20.12724,-24.47396 z"
       style="fill:#f0f0f0;fill-opacity:1;fill-rule:evenodd;stroke:#000000;stroke-width:0.80000001;stroke-linecap:round;stroke-linejoin:round;stroke-miterlimit:4;stroke-dasharray:none;stroke-opacity:1" />
    <path
       id="path1553"
       d="m 147.69419,88.168154 20.03274,-15.497025 10.77232,13.985119 -20.22172,14.930062 z"
       style="fill:#f0f0f0;fill-opacity:1;fill-rule:evenodd;stroke:#000000;stroke-width:0.80000001;stroke-linecap:round;stroke-linejoin:round;stroke-miterlimit:4;stroke-dasharray:none;stroke-opacity:1" />
    <path
       id="path1555"
       d="m 151.75744,109.05134 c -7.82646,-0.93338 -14.93009,-0.90297 -22.01712,-0.85045 -7.21442,8.77961 -5.42292,15.92178 -4.6302,23.24554 2.09409,1.86479 4.36396,1.62009 6.70908,0.47247 2.70996,-1.57377 5.48601,-3.08145 8.69345,-4.15774 3.42165,0.0303 5.77273,1.39879 8.22098,2.64583 1.13803,4.89806 -3.65858,5.60696 -6.4256,7.74851 l -7.843,0.85045 10.39434,10.01637 c 5.89532,-5.61717 14.28286,-10.23745 16.81994,-17.19792 1.7811,-4.99409 2.33972,-9.61204 -5.57515,-11.62276 -5.45097,0.96491 -11.03035,3.34231 -16.25297,1.79538 -0.54902,-1.81891 0.86329,-2.76612 2.55134,-3.59077 l 12.56771,-3.96875 c 0.76468,-1.2447 -1.61735,-3.43342 -3.2128,-5.38616 z"
       style="fill:#be293d;fill-opacity:1;fill-rule:evenodd;stroke:#000000;stroke-width:0.80000001;stroke-linecap:round;stroke-linejoin:round;stroke-miterlimit:4;stroke-dasharray:none;stroke-opacity:1" />
    <path
       id="path1557"
       d="m 155.81813,93.206983 c 6.86455,2.537622 12.08652,-1.939531 10.22306,-9.220798 -3.25215,-3.809071 -12.28651,-0.887125 -10.22306,9.220798 z"
       style="fill:#be293d;fill-opacity:1;fill-rule:evenodd;stroke:#000000;stroke-width:0.80000001;stroke-linecap:round;stroke-linejoin:round;stroke-miterlimit:4;stroke-dasharray:none;stroke-opacity:1" />
    <path
       id="path1559"
       d="m 164.97211,80.645316 3.47451,5.946746 3.4745,-2.605876 -3.40768,-5.412208 z"
       style="fill:#be293d;fill-opacity:1;fill-rule:evenodd;stroke:#000000;stroke-width:0.80000001;stroke-linecap:round;stroke-linejoin:round;stroke-miterlimit:4;stroke-dasharray:none;stroke-opacity:1" />
    <path
       id="path1561"
       d="M 243.22768,145.99851 C 233.6126,134.41642 225.80677,121.80047 217.90327,109.24033"
       style="fill:none;fill-rule:evenodd;stroke:#000000;stroke-width:0.80000001;stroke-linecap:round;stroke-linejoin:round;stroke-miterlimit:4;stroke-dasharray:none;stroke-opacity:1" />
    <path
       id="path1563"
       d="m 248.23586,141.3683 c -4.13003,-3.96875 -6.46579,-7.9375 -8.88244,-11.90625"
       style="fill:none;fill-rule:evenodd;stroke:#000000;stroke-width:0.80000001;stroke-linecap:round;stroke-linejoin:round;stroke-miterlimit:4;stroke-dasharray:none;stroke-opacity:1" />
    <path
       id="path1565"
       d="m 252.20461,139.38393 c -2.9722,-2.87664 -4.9885,-5.94446 -6.70908,-9.07143"
       style="fill:none;fill-rule:evenodd;stroke:#000000;stroke-width:0.80000001;stroke-linecap:round;stroke-linejoin:round;stroke-miterlimit:4;stroke-dasharray:none;stroke-opacity:1" />
    <path
       id="path1605"
       d="m 211.47701,81.246672 -0.66817,2.271792 c 5.54838,4.812008 10.72249,2.887105 15.90253,1.069078 l 5.14494,0.400905 c 2.77089,0.973372 3.51643,1.765283 4.66633,3.611496 l 2.81305,0.187598 c 7.22245,6.714229 10.92117,5.58532 14.30309,3.75127 4.80857,3.512491 9.64845,7.314697 13.96837,6.307169 l 7.37052,3.59077 -3.40177,-7.890249 -16.06624,-7.219447 c -6.46367,1.843974 -10.71618,-0.834886 -14.43255,-4.610402 l -17.57297,-4.142674 c 0.29782,1.237368 -0.11464,2.28102 -1.20271,3.140417 -1.97137,1.753654 -7.56964,0.220872 -10.82442,-0.467723 z"
       style="fill:#000000;fill-opacity:1;fill-rule:evenodd;stroke:#000000;stroke-width:0.80000001;stroke-linecap:round;stroke-linejoin:round;stroke-miterlimit:4;stroke-dasharray:none;stroke-opacity:1" />
    <g
       id="leftArm">
      <path
         style="fill:#b2a6d8;fill-opacity:1;fill-rule:evenodd;stroke:#000000;stroke-width:0.80000001;stroke-linecap:round;stroke-linejoin:round;stroke-miterlimit:4;stroke-dasharray:none;stroke-opacity:1"
         d="m 225.70911,60.266016 c -0.29932,-3.615742 -1.87823,-6.692713 -8.88671,-7.483547 -7.08523,0.615527 -10.79776,4.107769 -11.82668,9.888972 -0.84336,5.036764 -0.59629,6.366092 -0.60135,8.552624 1.78368,-1.654366 3.51234,-3.453138 6.68174,-1.469983 -0.0458,-5.086267 0.76535,-9.432488 4.61039,-11.158503 3.34087,-0.885088 6.68174,0.07504 10.02261,1.670437 z"
         id="path1567" />
      <path
         style="fill:#2b4288;fill-opacity:1;fill-rule:evenodd;stroke:#000000;stroke-width:0.80000001;stroke-linecap:round;stroke-linejoin:round;stroke-miterlimit:4;stroke-dasharray:none;stroke-opacity:1"
         d="m 204.39437,71.224065 c 1.35335,3.844635 2.76702,7.659108 7.08264,10.022607 5.72987,1.316855 9.80651,1.72911 10.82442,0.467723 1.29324,-1.106295 1.20484,-2.12048 1.20271,-3.140417 -4.64417,-1.984739 -9.5774,-3.418896 -12.42803,-8.819896 -2.22725,-1.74199 -4.45449,-1.062602 -6.68174,1.469983 z"
         id="path1569" />
      <path
         style="fill:#b2a6d8;fill-opacity:1;fill-rule:evenodd;stroke:#000000;stroke-width:0.80000001;stroke-linecap:round;stroke-linejoin:round;stroke-miterlimit:4;stroke-dasharray:none;stroke-opacity:1"
         d="m 215.6865,58.595579 c 3.2189,-1.333672 6.63235,0.348107 10.02261,1.670437 l 18.84148,4.751096 c -3.48987,4.398351 -4.00191,7.903352 -3.96875,11.244792 l -29.50573,-6.507822 c 0.21024,-4.317753 0.009,-8.820995 4.61039,-11.158503 z"
         id="path1573" />
      <path
         style="fill:#2b4288;fill-opacity:1;fill-rule:evenodd;stroke:#000000;stroke-width:0.80000001;stroke-linecap:round;stroke-linejoin:round;stroke-miterlimit:4;stroke-dasharray:none;stroke-opacity:1"
         d="m 211.07611,69.754082 c 2.56662,4.96632 7.41099,7.004108 12.42803,8.819896 l 17.57297,4.142676 -0.42845,-6.321115 z"
         id="path1575" />
      <path
         style="fill:#b2a6d8;fill-opacity:1;fill-rule:evenodd;stroke:#000000;stroke-width:0.80000001;stroke-linecap:round;stroke-linejoin:round;stroke-miterlimit:4;stroke-dasharray:none;stroke-opacity:1"
         d="m 244.55059,65.017112 c 1.58185,-1.048762 3.34139,-1.653267 5.2796,-1.811131 8.45059,0.806366 8.91398,2.069144 11.5594,3.207234 -3.48957,2.932897 -5.6194,6.93417 -6.61492,11.826677 -4.15182,-4.547746 -8.79504,-5.796035 -14.19283,-1.977988 -0.24386,-5.917644 1.97612,-8.423825 3.96875,-11.244792 z"
         id="path1577" />
      <path
         style="fill:#2b4288;fill-opacity:1;fill-rule:evenodd;stroke:#000000;stroke-width:0.80000001;stroke-linecap:round;stroke-linejoin:round;stroke-miterlimit:4;stroke-dasharray:none;stroke-opacity:1"
         d="m 240.64866,76.395539 0.42845,6.321113 c 4.42192,4.474688 9.47631,6.19135 14.43255,4.610402 -1.03408,-6.632665 -0.85978,-6.92443 -0.73499,-9.087162 -3.76501,-3.78277 -7.89593,-6.337158 -14.12601,-1.844353 z"
         id="path1579" />
      <path
         style="fill:#b2a6d8;fill-opacity:1;fill-rule:evenodd;stroke:#000000;stroke-width:0.80000001;stroke-linecap:round;stroke-linejoin:round;stroke-miterlimit:4;stroke-dasharray:none;stroke-opacity:1"
         d="m 261.38959,66.413215 c 13.89504,3.415609 23.56203,7.284223 30.40801,11.455088 -6.38539,1.288672 -9.32919,6.117265 -11.33927,11.90625 -11.71731,-6.27265 -18.77676,-8.962328 -25.68366,-11.534661 0.89714,-5.184671 3.19871,-9.035128 6.61492,-11.826677 z"
         id="path1581" />
      <path
         style="fill:#2b4288;fill-opacity:1;fill-rule:evenodd;stroke:#000000;stroke-width:0.80000001;stroke-linecap:round;stroke-linejoin:round;stroke-miterlimit:4;stroke-dasharray:none;stroke-opacity:1"
         d="m 254.77467,78.239892 c -0.16469,1.708964 -0.21694,3.780208 0.73499,9.087162 7.99057,3.874721 16.19363,6.580716 23.95648,11.707915 -0.0229,-2.865804 -0.84661,-5.231067 0.99219,-9.260416 -7.93347,-3.823241 -14.38124,-7.59525 -25.68366,-11.534661 z"
         id="path1583" />
      <path
         style="fill:#b2a6d8;fill-opacity:1;fill-rule:evenodd;stroke:#000000;stroke-width:0.80000001;stroke-linecap:round;stroke-linejoin:round;stroke-miterlimit:4;stroke-dasharray:none;stroke-opacity:1"
         d="m 280.45833,89.774553 c 0.99678,-1.251655 2.15385,-2.214765 4.39396,-1.228424 2.091,2.09033 1.90474,4.531006 2.5041,6.850819 2.78887,-4.71043 4.56524,-9.744859 10.29986,-13.512649 -0.85835,-2.601593 -3.41298,-3.245932 -5.85865,-4.015996 -6.57929,1.169216 -9.37639,6.120619 -11.33927,11.90625 z"
         id="path1585" />
      <path
         style="fill:#2b4288;fill-opacity:1;fill-rule:evenodd;stroke:#000000;stroke-width:0.80000001;stroke-linecap:round;stroke-linejoin:round;stroke-miterlimit:4;stroke-dasharray:none;stroke-opacity:1"
         d="m 279.46614,99.034967 c 1.72707,2.349933 3.26424,4.818553 5.95313,6.567343 0.41083,-3.44093 0.7915,-6.886894 1.93712,-10.205364 -0.51469,-3.106489 -1.12064,-5.978321 -2.5041,-6.850819 -1.37701,-0.554578 -2.76958,-0.938065 -4.39396,1.228426 -1.16945,2.699705 -1.46044,5.804849 -0.99219,9.260414 z"
         id="path1587" />
      <path
         style="fill:#b2a6d8;fill-opacity:1;fill-rule:evenodd;stroke:#000000;stroke-width:0.80000001;stroke-linecap:round;stroke-linejoin:round;stroke-miterlimit:4;stroke-dasharray:none;stroke-opacity:1"
         d="m 288.34858,93.979535 c 2.46499,-4.584303 4.9922,-9.114685 9.30767,-12.095238 1.5357,-1.406794 4.266,-2.017182 6.89805,-2.693078 l 19.1823,13.418153 c -6.41859,2.190128 -13.45483,0.125331 -18.85157,9.354908 l -1.55913,2.26786 z"
         id="path1589" />
      <path
         style="fill:#2b4288;fill-opacity:1;fill-rule:evenodd;stroke:#000000;stroke-width:0.80000001;stroke-linecap:round;stroke-linejoin:round;stroke-miterlimit:4;stroke-dasharray:none;stroke-opacity:1"
         d="m 288.34858,93.979533 -0.99219,1.417413 c -1.05915,3.401788 -1.63247,6.803574 -1.93712,10.205364 l 14.88281,16.25297 c 0.0653,-6.31205 -0.42237,-12.88081 3.02382,-17.62314 z"
         id="path1591" />
      <path
         style="fill:#b2a6d8;fill-opacity:1;fill-rule:evenodd;stroke:#000000;stroke-width:0.80000001;stroke-linecap:round;stroke-linejoin:round;stroke-miterlimit:4;stroke-dasharray:none;stroke-opacity:1"
         d="m 323.7366,92.60937 49.89287,27.78125 c -18.71012,-1.59957 -23.95705,7.14059 -27.11979,17.4814 l -41.62465,-35.90774 c 4.65696,-9.245767 14.80947,-7.482534 18.85157,-9.35491 z"
         id="path1593" />
      <path
         style="fill:#2b4288;fill-opacity:1;fill-rule:evenodd;stroke:#000000;stroke-width:0.80000001;stroke-linecap:round;stroke-linejoin:round;stroke-miterlimit:4;stroke-dasharray:none;stroke-opacity:1"
         d="m 346.50968,137.87202 c -2.07006,7.76112 -1.39333,12.08876 -1.03944,16.81994 l -45.07601,-39.81944 c 0.15791,-3.35772 0.49668,-6.75718 2.93167,-10.64038 l 1.55913,-2.26786 z"
         id="path1595" />
      <path
         style="fill:#2b4288;fill-opacity:1;fill-rule:evenodd;stroke:#000000;stroke-width:0.80000001;stroke-linecap:round;stroke-linejoin:round;stroke-miterlimit:4;stroke-dasharray:none;stroke-opacity:1"
         d="m 346.50968,137.87202 14.26858,0.47247 c 1.71559,-1.55401 3.40515,-2.42334 5.38618,-2.26785 l -0.85045,-15.59152 c -11.9107,0.81572 -17.3283,10.86407 -18.80431,17.3869 z"
         id="path1607" />
      <path
         style="fill:#f0f0f0;fill-opacity:1;fill-rule:evenodd;stroke:#000000;stroke-width:0.80000001;stroke-linecap:round;stroke-linejoin:round;stroke-miterlimit:4;stroke-dasharray:none;stroke-opacity:1"
         d="m 345.47024,154.69196 c -0.90328,-6.56235 -0.18521,-11.88484 1.03944,-16.81994 l 14.26858,0.47247 c -4.33683,8.62595 0.29041,11.32404 3.4018,15.02456 l -6.70909,11.90624 c -4.00024,-1.87452 -8.00049,-4.01161 -12.00073,-10.58333 z"
         id="path1609" />
      <path
         style="fill:#b2a6d8;fill-opacity:1;fill-rule:evenodd;stroke:#000000;stroke-width:0.80000001;stroke-linecap:round;stroke-linejoin:round;stroke-miterlimit:4;stroke-dasharray:none;stroke-opacity:1"
         d="m 366.16444,136.07664 c 1.1954,-0.0798 1.93276,0.0886 2.64583,0.85044 2.83792,-4.32898 4.85858,-8.80655 10.29983,-12.6622 -1.30603,-1.55184 -2.69157,-3.06393 -5.48063,-3.87426 -2.57613,-0.3599 -5.24041,-0.54349 -8.31548,0.0945 z"
         id="path1611" />
      <path
         style="fill:#b2a6d8;fill-opacity:1;fill-rule:evenodd;stroke:#000000;stroke-width:0.80000001;stroke-linecap:round;stroke-linejoin:round;stroke-miterlimit:4;stroke-dasharray:none;stroke-opacity:1"
         d="m 364.18006,153.36905 c 5.23552,1.48234 8.1786,0.21373 9.63838,-2.83482 5.03969,2.28179 10.07937,4.52659 15.11906,5.57514 -6.80129,10.81188 -17.35783,13.7248 -31.46653,9.16592 z"
         id="path1613" />
      <path
         style="fill:#b2a6d8;fill-opacity:1;fill-rule:evenodd;stroke:#000000;stroke-width:0.80000001;stroke-linecap:round;stroke-linejoin:round;stroke-miterlimit:4;stroke-dasharray:none;stroke-opacity:1"
         d="m 368.81027,136.92708 c -2.54364,3.20972 -4.14331,6.04184 -2.92933,7.74851 2.25741,3.70079 5.22234,4.21771 7.9375,5.85864 -1.80792,3.75469 -5.31806,4.10492 -9.63838,2.83482 -5.28347,-4.50521 -6.4338,-9.51141 -3.4018,-15.02456 1.56576,-0.98558 2.65338,-2.44931 5.38618,-2.26785 1.12586,-0.17387 2.02383,0.0796 2.64583,0.85044 z"
         id="path1615" />
      <path
         style="fill:#2b4288;fill-opacity:1;fill-rule:evenodd;stroke:#000000;stroke-width:0.80000001;stroke-linecap:round;stroke-linejoin:round;stroke-miterlimit:4;stroke-dasharray:none;stroke-opacity:1"
         d="m 386.73899,118.46395 c -2.35598,1.71366 -2.58768,0.92817 -7.62889,5.80093 -5.36262,4.08292 -7.19863,8.41775 -10.29983,12.6622 -1.82449,2.46976 -3.70767,4.9317 -2.92933,7.74851 2.13014,3.24211 5.13757,4.291 7.9375,5.85864 4.92424,2.147 9.84713,4.29737 15.11906,5.57514 l 3.94869,0.30686 c -6.02803,-9.51582 -11.63678,-19.36198 -6.1472,-37.95228 z"
         id="path1617" />
      <path
         style="fill:#2b4288;fill-opacity:1;fill-rule:evenodd;stroke:#000000;stroke-width:0.80000001;stroke-linecap:round;stroke-linejoin:round;stroke-miterlimit:4;stroke-dasharray:none;stroke-opacity:1"
         d="m 386.73899,118.46395 47.30671,4.74404 c 2.99754,2.70694 5.54584,5.26865 0.66818,11.96031 l -39.42226,23.25245 -2.40543,-2.00452 c -6.9766,-10.00313 -11.03564,-21.5739 -6.1472,-37.95228 z"
         id="path1619" />
      <path
         style="fill:none;fill-rule:evenodd;stroke:#000000;stroke-width:0.80000001;stroke-linecap:round;stroke-linejoin:round;stroke-miterlimit:4;stroke-dasharray:none;stroke-opacity:1"
         d="m 434.0457,123.20799 c -3.70574,4.52216 -3.31737,8.3208 0.66818,11.96031"
         id="path1621" />
      <path
         style="fill:#000000;fill-opacity:1;fill-rule:evenodd;stroke:#000000;stroke-width:0.80000001;stroke-linecap:round;stroke-linejoin:round;stroke-miterlimit:4;stroke-dasharray:none;stroke-opacity:1"
         d="m 392.88619,156.41623 5.4062,8.10311 c 2.36256,1.22883 3.83538,0.67818 5.48066,0.47247 1.44214,-1.24285 2.81758,-2.56574 3.02382,-5.29166 l -4.44122,-5.10268 -7.06403,3.82328 z"
         id="path1623" />
      <path
         style="fill:#f0f0f0;fill-opacity:1;fill-rule:evenodd;stroke:#000000;stroke-width:0.80000001;stroke-linecap:round;stroke-linejoin:round;stroke-miterlimit:4;stroke-dasharray:none;stroke-opacity:1"
         d="m 392.88619,156.41623 c -4.99911,3.61687 -10.82816,6.4038 -9.52384,16.3241 4.33046,6.22926 11.89638,2.95434 20.22171,-2.55134 11.74604,-9.09309 14.79025,-17.88768 13.89065,-24.28497 l -15.11906,8.69345 4.44122,5.10268 -3.02382,5.29166 -5.48066,-0.47247 z"
         id="path1627" />
      <path
         style="fill:#b2a6d8;fill-opacity:1;fill-rule:evenodd;stroke:#000000;stroke-width:0.80000001;stroke-linecap:round;stroke-linejoin:round;stroke-miterlimit:4;stroke-dasharray:none;stroke-opacity:1"
         d="m 403.58406,170.18899 c 6.40855,-5.60877 14.35683,-12.86674 13.89065,-24.28497 10.36458,7.46067 20.05358,16.61031 29.95459,25.22991 0.23149,11.28956 -6.46428,18.97695 -12.2842,27.11979 z"
         id="path1629" />
      <path
         style="fill:#2b4288;fill-opacity:1;fill-rule:evenodd;stroke:#000000;stroke-width:0.80000001;stroke-linecap:round;stroke-linejoin:round;stroke-miterlimit:4;stroke-dasharray:none;stroke-opacity:1"
         d="m 383.36235,172.74033 c 7.5249,7.97322 15.87548,-0.56142 20.22171,-2.55134 l 31.56104,28.06473 c -3.96972,2.5192 -7.13793,5.57274 -12.47323,7.18155 -1.74626,0.2141 -3.40519,0.86486 -5.38615,-0.0945 z"
         id="path1631" />
      <path
         style="fill:#000000;fill-opacity:1;fill-rule:evenodd;stroke:#000000;stroke-width:0.80000001;stroke-linecap:round;stroke-linejoin:round;stroke-miterlimit:4;stroke-dasharray:none;stroke-opacity:1"
         d="m 389.47852,139.17734 c 2.12465,-3.01383 4.5054,-5.35084 9.08716,-1.87088 -1.53456,3.94472 -4.34838,5.04665 -9.08716,1.87088 z"
         id="path1633" />
      <path
         style="fill:#000000;fill-opacity:1;fill-rule:evenodd;stroke:#000000;stroke-width:0.80000001;stroke-linecap:round;stroke-linejoin:round;stroke-miterlimit:4;stroke-dasharray:none;stroke-opacity:1"
         d="m 404.57924,136.77192 c 1.99928,-3.48599 4.93068,-3.94256 8.35218,-2.80633 -2.00256,4.14826 -4.74621,5.24986 -8.35218,2.80633 z"
         id="path1635" />
      <path
         style="fill:#000000;fill-opacity:1;fill-rule:evenodd;stroke:#000000;stroke-width:0.80000001;stroke-linecap:round;stroke-linejoin:round;stroke-miterlimit:4;stroke-dasharray:none;stroke-opacity:1"
         d="m 399.70157,127.28385 c 2.45919,-2.27659 2.67243,-4.74035 -1.26953,-7.55037 -2.73642,3.65775 -2.40823,6.20885 1.26953,7.55037 z"
         id="path1637" />
      <path
         style="fill:#000000;fill-opacity:1;fill-rule:evenodd;stroke:#000000;stroke-width:0.80000001;stroke-linecap:round;stroke-linejoin:round;stroke-miterlimit:4;stroke-dasharray:none;stroke-opacity:1"
         d="m 412.86459,129.48882 c -2.46811,-1.71905 -3.78722,-3.79717 -0.60135,-7.28309 3.17651,1.46768 2.94121,4.03594 0.60135,7.28309 z"
         id="path1639" />
      <path
         style="fill:#000000;fill-opacity:1;fill-rule:evenodd;stroke:#000000;stroke-width:0.80000001;stroke-linecap:round;stroke-linejoin:round;stroke-miterlimit:4;stroke-dasharray:none;stroke-opacity:1"
         d="m 407.4524,142.51821 c 2.94543,0.48277 4.77402,2.19996 4.34311,6.41447 -4.34745,-0.0439 -6.39819,-1.74652 -4.34311,-6.41447 z"
         id="path1641" />
      <path
         style="fill:#000000;fill-opacity:1;fill-rule:evenodd;stroke:#000000;stroke-width:0.80000001;stroke-linecap:round;stroke-linejoin:round;stroke-miterlimit:4;stroke-dasharray:none;stroke-opacity:1"
         d="m 419.21226,133.76513 c 2.21936,0.78777 4.32884,3.55341 6.88218,-1.67043 -2.77101,-2.78183 -5.00111,-1.77731 -6.88218,1.67043 z"
         id="path1643" />
    </g>
    <g
       id="rightArm">
      <path
         style="fill:#b2a6d8;fill-opacity:1;fill-rule:evenodd;stroke:#000000;stroke-width:0.80000001;stroke-linecap:round;stroke-linejoin:round;stroke-miterlimit:4;stroke-dasharray:none;stroke-opacity:1"
         d="m 95.415221,116.59307 2.197129,2.19116 -10.299851,2.07886 c 0.730445,-4.12209 -0.230824,-7.84613 -3.779761,-10.96131 l 28.915182,-8.22098 z"
         id="path1645" />
      <path
         style="fill:#b2a6d8;fill-opacity:1;fill-rule:evenodd;stroke:#000000;stroke-width:0.80000001;stroke-linecap:round;stroke-linejoin:round;stroke-miterlimit:4;stroke-dasharray:none;stroke-opacity:1"
         d="m 83.532738,109.90178 c -9.488561,-7.59973 -17.059106,-5.12986 -23.52902,3.11831 13.203452,-2.07385 15.963756,2.40486 16.441965,8.31547 3.113266,-2.29532 6.502941,-3.42971 10.866816,-0.47247 0.978255,-4.99668 -1.008648,-8.21426 -3.779761,-10.96131 z"
         id="path1647" />
      <path
         style="fill:#b2a6d8;fill-opacity:1;fill-rule:evenodd;stroke:#000000;stroke-width:0.80000001;stroke-linecap:round;stroke-linejoin:round;stroke-miterlimit:4;stroke-dasharray:none;stroke-opacity:1"
         d="m 60.003718,113.02009 -18.709819,4.7247 c 4.129432,3.55434 6.793444,7.56663 6.898065,12.37872 l 28.253719,-8.78795 c -0.657453,-9.46207 -8.079783,-9.5406 -16.441965,-8.31547 z"
         id="path1649" />
      <path
         style="fill:#b2a6d8;fill-opacity:1;fill-rule:evenodd;stroke:#000000;stroke-width:0.80000001;stroke-linecap:round;stroke-linejoin:round;stroke-miterlimit:4;stroke-dasharray:none;stroke-opacity:1"
         d="m 41.293899,117.74479 c -10.678941,-3.53387 -14.460438,0.62557 -18.804316,4.15774 8.920462,2.59387 10.59642,6.92642 13.512649,10.96131 3.880302,-2.92581 7.591668,-7.70991 12.189732,-2.74033 -0.460195,-3.94232 -1.471211,-7.93973 -6.898065,-12.37872 z"
         id="path1651" />
      <path
         style="fill:#b2a6d8;fill-opacity:1;fill-rule:evenodd;stroke:#000000;stroke-width:0.80000001;stroke-linecap:round;stroke-linejoin:round;stroke-miterlimit:4;stroke-dasharray:none;stroke-opacity:1"
         d="m 22.489583,121.90253 c -8.448903,0.26924 -11.57054,3.52175 -13.7961307,7.27604 11.2087397,-0.75776 14.9044687,4.67167 17.6703867,10.86682 2.48206,-3.0028 5.644771,-5.43839 9.638393,-7.18155 -2.979749,-4.03489 -4.768837,-8.36744 -13.512649,-10.96131 z"
         id="path1653" />
      <path
         style="fill:#b2a6d8;fill-opacity:1;fill-rule:evenodd;stroke:#000000;stroke-width:0.80000001;stroke-linecap:round;stroke-linejoin:round;stroke-miterlimit:4;stroke-dasharray:none;stroke-opacity:1"
         d="m 8.6934523,129.17857 -30.9940473,20.50521 c 8.458454,-0.3716 16.0133542,2.26864 22.20610095,9.4494 L 26.363839,140.04539 C 23.102901,131.69057 16.992071,128.46556 8.6934523,129.17857 Z"
         id="path1655" />
      <path
         style="fill:#b2a6d8;fill-opacity:1;fill-rule:evenodd;stroke:#000000;stroke-width:0.80000001;stroke-linecap:round;stroke-linejoin:round;stroke-miterlimit:4;stroke-dasharray:none;stroke-opacity:1"
         d="m -22.300595,149.68378 -26.363839,16.44196 c 13.830426,-6.2312 22.348607,-1.20043 29.954613,5.76414 l 18.61532695,-12.7567 C -4.6616339,155.15654 -6.283273,150.32079 -22.300595,149.68378 Z"
         id="path1657" />
      <path
         style="fill:#2b4288;fill-opacity:1;fill-rule:evenodd;stroke:#000000;stroke-width:0.80000001;stroke-linecap:round;stroke-linejoin:round;stroke-miterlimit:4;stroke-dasharray:none;stroke-opacity:1"
         d="m -18.709821,171.88988 c 5.634538,7.10192 7.940643,15.13581 7.276041,24.00149 L 6.1421131,176.89806 C 5.3107688,169.2299 3.2566418,163.27363 -0.09449405,159.13318 Z"
         id="path1659" />
      <path
         style="fill:#2b4288;fill-opacity:1;fill-rule:evenodd;stroke:#000000;stroke-width:0.80000001;stroke-linecap:round;stroke-linejoin:round;stroke-miterlimit:4;stroke-dasharray:none;stroke-opacity:1"
         d="M -0.09449405,159.13318 26.363839,140.04539 c 0.188319,3.29196 0.449037,6.53867 -1.322917,11.0558 L 6.1421131,176.89806 C 5.2443976,170.11741 3.5628603,163.90682 -0.09449405,159.13318 Z"
         id="path1661" />
      <path
         style="fill:#2b4288;fill-opacity:1;fill-rule:evenodd;stroke:#000000;stroke-width:0.80000001;stroke-linecap:round;stroke-linejoin:round;stroke-miterlimit:4;stroke-dasharray:none;stroke-opacity:1"
         d="m 26.363839,140.04539 c 2.450337,-3.3088 5.94164,-5.36845 9.638393,-7.18155 1.73364,3.34226 1.971559,7.24541 1.700893,11.33928 -3.432553,4.19099 -7.989717,5.68292 -12.662203,6.89807 1.384957,-3.68527 1.69997,-7.37053 1.322917,-11.0558 z"
         id="path1663" />
      <path
         style="fill:#2b4288;fill-opacity:1;fill-rule:evenodd;stroke:#000000;stroke-width:0.80000001;stroke-linecap:round;stroke-linejoin:round;stroke-miterlimit:4;stroke-dasharray:none;stroke-opacity:1"
         d="m 36.002232,132.86384 c 1.262759,2.78577 2.186304,6.05613 1.700893,11.33928 4.003766,-1.73335 8.438214,-2.48228 10.772322,-8.03199 0.649213,-2.01587 0.317531,-4.03175 -0.283483,-6.04762 -4.811024,-5.25574 -8.313795,0.2816 -12.189732,2.74033 z"
         id="path1665" />
      <path
         style="fill:#2b4288;fill-opacity:1;fill-rule:evenodd;stroke:#000000;stroke-width:0.80000001;stroke-linecap:round;stroke-linejoin:round;stroke-miterlimit:4;stroke-dasharray:none;stroke-opacity:1"
         d="m 48.475447,136.17113 20.21282,-3.67553 c 8.260661,-3.72001 8.442538,-7.44003 7.757416,-11.16004 l -28.253719,8.78795 c 0.375404,1.87542 1.236918,3.50778 0.283483,6.04762 z"
         id="path1667" />
      <path
         style="fill:#2b4288;fill-opacity:1;fill-rule:evenodd;stroke:#000000;stroke-width:0.80000001;stroke-linecap:round;stroke-linejoin:round;stroke-miterlimit:4;stroke-dasharray:none;stroke-opacity:1"
         d="m 68.688267,132.4956 c 5.076387,-2.18735 9.157576,-4.98713 7.757416,-11.16004 4.014786,-2.77425 7.607748,-2.73634 10.866816,-0.47247 -1.703176,10.22532 -5.911831,16.92019 -18.624232,11.63251 z"
         id="path1669" />
      <path
         style="fill:#2b4288;fill-opacity:1;fill-rule:evenodd;stroke:#000000;stroke-width:0.80000001;stroke-linecap:round;stroke-linejoin:round;stroke-miterlimit:4;stroke-dasharray:none;stroke-opacity:1"
         d="m 87.312499,120.86309 10.299851,-2.07886 5.85863,4.7247 -17.481398,2.92931 c 0.601676,-1.85838 1.097512,-3.71677 1.322917,-5.57515 z"
         id="path1671" />
      <path
         style="fill:#2b4288;fill-opacity:1;fill-rule:evenodd;stroke:#000000;stroke-width:0.80000001;stroke-linecap:round;stroke-linejoin:round;stroke-miterlimit:4;stroke-dasharray:none;stroke-opacity:1"
         d="m -48.664434,166.12574 6.709077,15.11905 c 3.285199,-1.95428 5.893028,-4.77947 14.268601,-0.18899 l 8.976935,-9.16592 c -7.125554,-5.49553 -13.114536,-12.41177 -29.954613,-5.76414 z"
         id="path1673" />
      <path
         style="fill:#b2a6d8;fill-opacity:1;fill-rule:evenodd;stroke:#000000;stroke-width:0.80000001;stroke-linecap:round;stroke-linejoin:round;stroke-miterlimit:4;stroke-dasharray:none;stroke-opacity:1"
         d="m -27.686756,181.0558 c 1.829575,4.64238 4.085706,9.21651 -0.188987,14.83557 l 8.409969,8.40997 c 3.37614,-2.45392 6.166007,-5.20097 8.031994,-8.40997 0.812457,-12.772 -3.465561,-18.04224 -7.276041,-24.00149 z"
         id="path1675" />
      <path
         style="fill:#f0f0f0;fill-opacity:1;fill-rule:evenodd;stroke:#000000;stroke-width:0.80000001;stroke-linecap:round;stroke-linejoin:round;stroke-miterlimit:4;stroke-dasharray:none;stroke-opacity:1"
         d="m -27.875743,195.89137 c -1.845314,1.02754 -4.233946,1.2401 -7.087055,0.75595 l -8.126486,6.23661 c 10.615275,6.43768 17.205467,4.11488 23.62351,1.41741 z"
         id="path1677" />
      <path
         style="fill:#b2a6d8;fill-opacity:1;fill-rule:evenodd;stroke:#000000;stroke-width:0.80000001;stroke-linecap:butt;stroke-linejoin:miter;stroke-miterlimit:4;stroke-dasharray:none;stroke-opacity:1"
         d="m -41.955357,181.24479 -6.709077,-15.11905 c -5.669617,6.78838 -11.336065,13.57807 -2.740326,26.26935 l 7.465028,-4.53572 c -1.23794,-2.03219 0.557655,-4.34015 1.984375,-6.61458 z"
         id="path1679" />
      <path
         style="fill:#b2a6d8;fill-opacity:1;fill-rule:evenodd;stroke:#000000;stroke-width:0.80000001;stroke-linecap:round;stroke-linejoin:round;stroke-miterlimit:4;stroke-dasharray:none;stroke-opacity:1"
         d="m -43.939732,187.85937 c -1.064069,-0.95865 -1.435559,-2.41749 1.984375,-6.61458 3.434638,-2.90944 7.582661,-4.28235 14.268601,-0.18899 4.158994,8.19287 2.061204,11.57284 -0.188987,14.83557 -2.547387,1.54723 -4.774717,0.85406 -7.087055,0.75595 2.29546,-1.84777 4.44109,-4.08752 3.496281,-7.18155 -4.494969,-6.93823 -8.543723,-3.00189 -12.473215,-1.6064 z"
         id="path1681" />
      <path
         style="fill:#b2a6d8;fill-opacity:1;fill-rule:evenodd;stroke:#000000;stroke-width:0.80000001;stroke-linecap:round;stroke-linejoin:round;stroke-miterlimit:4;stroke-dasharray:none;stroke-opacity:1"
         d="m -31.466517,189.46577 c -3.222158,-5.68116 -7.760354,-4.12411 -12.473215,-1.6064 l -7.465028,4.53572 -10.016371,6.89806 -4.441219,-6.42559 c -3.708955,-1.29897 -7.336624,-3.00438 -11.528274,-1.88988 -1.740242,1.81377 -3.161579,3.73383 -3.401785,6.04761 l 5.764136,11.1503 c -4.294737,6.16222 -10.408975,9.14032 -12.000743,20.03274 -0.477416,5.81016 2.069943,11.79826 5.858631,17.85937 1.526596,-3.1723 4.566257,-4.99527 8.787945,-5.76413 -6.60949,-16.9698 1.326353,-21.51546 6.142114,-28.72619 -3.133413,-4.44916 -4.802437,-8.26163 -2.173364,-10.20536 4.185353,-1.8162 6.162235,2.44089 8.409972,5.95313 z"
         id="path1683" />
      <path
         style="fill:#2b4288;fill-opacity:1;fill-rule:evenodd;stroke:#000000;stroke-width:0.80000001;stroke-linecap:round;stroke-linejoin:round;stroke-miterlimit:4;stroke-dasharray:none;stroke-opacity:1"
         d="m -31.466517,189.46577 -28.537201,17.85938 c -4.361466,-7.87069 -6.226663,-6.31103 -8.409972,-5.95313 -2.460065,1.54415 -1.41056,5.13555 2.173364,10.20536 -4.181537,7.44123 -12.706064,10.53947 -6.142114,28.72619 l 9.35491,0.18899 c -2.288984,-6.91305 -1.050424,-14.33003 0.0945,-21.73363 11.924735,0.73677 13.93701,-5.13476 13.890625,-12.37873 l 5.953125,-3.49627 8.126486,-6.23661 c 3.420638,-2.5348 4.09466,-4.89794 3.496277,-7.18155 z"
         id="path1685" />
      <path
         style="fill:#2b4288;fill-opacity:1;fill-rule:evenodd;stroke:#000000;stroke-width:0.80000001;stroke-linecap:round;stroke-linejoin:round;stroke-miterlimit:4;stroke-dasharray:none;stroke-opacity:1"
         d="m -81.170385,246.0677 c 1.956629,-3.86675 5.351722,-4.85657 8.787945,-5.76413 l 9.35491,0.18899 -9.165921,6.14211 c -5.132283,1.95098 -7.333472,0.97087 -8.976934,-0.56697 z"
         id="path1687" />
      <ellipse
         style="opacity:1;fill:#b2a6d8;fill-opacity:1;fill-rule:nonzero;stroke:#000000;stroke-width:0.87143052;stroke-linecap:round;stroke-linejoin:round;stroke-miterlimit:4;stroke-dasharray:none;stroke-opacity:1;paint-order:normal"
         id="path1689"
         cx="-80.247673"
         cy="186.45064"
         rx="4.5746841"
         ry="4.4744582" />
      <path
         style="fill:#2b4288;fill-opacity:1;fill-rule:evenodd;stroke:#000000;stroke-width:0.80000001;stroke-linecap:round;stroke-linejoin:round;stroke-miterlimit:4;stroke-dasharray:none;stroke-opacity:1"
         d="m -84.056267,188.88947 -10.557144,5.07812 6.681737,8.48581 6.013564,-11.75986 c -0.950775,-0.42281 -1.88464,-0.85831 -2.138157,-1.80407 z"
         id="path1691" />
      <path
         style="fill:#2b4288;fill-opacity:1;fill-rule:evenodd;stroke:#000000;stroke-width:0.80000001;stroke-linecap:round;stroke-linejoin:round;stroke-miterlimit:4;stroke-dasharray:none;stroke-opacity:1"
         d="m -78.510423,182.14092 7.14946,-10.08943 6.681737,9.48807 -11.091685,3.87541 c -0.394549,-1.60997 -1.459658,-2.54938 -2.739512,-3.27405 z"
         id="path1693" />
    </g>
    <path
       id="path1695"
       d="m 242.948,161.56116 11.62622,46.17081 45.03492,-22.18337 -14.56786,-50.5114 z"
       style="fill:#709ad0;fill-opacity:1;fill-rule:evenodd;stroke:#000000;stroke-width:0.80000001;stroke-linecap:round;stroke-linejoin:round;stroke-miterlimit:4;stroke-dasharray:none;stroke-opacity:1" />
    <path
       id="path1697"
       d="m 254.57422,207.73197 -6.61492,2.33861 -11.82668,-39.35543 c 0.26624,-6.09465 4.38646,-4.67402 8.08491,-4.07586 z"
       style="fill:#709ad0;fill-opacity:1;fill-rule:evenodd;stroke:#000000;stroke-width:0.80000001;stroke-linecap:round;stroke-linejoin:round;stroke-miterlimit:4;stroke-dasharray:none;stroke-opacity:1" />
    <path
       id="path1699"
       d="m 236.13262,170.71515 c -6.32842,-4.53514 -7.46908,-1.13604 -7.81763,3.4745 l 11.1585,38.08591 8.48581,-2.20498 z"
       style="fill:#709ad0;fill-opacity:1;fill-rule:evenodd;stroke:#000000;stroke-width:0.80000001;stroke-linecap:round;stroke-linejoin:round;stroke-miterlimit:4;stroke-dasharray:none;stroke-opacity:1" />
    <path
       id="path1701"
       d="m 228.31499,174.18965 c -4.27468,-2.86445 -6.6728,-0.84986 -8.28535,3.20723 l 12.22758,36.61593 7.21627,-1.73725 z"
       style="fill:#709ad0;fill-opacity:1;fill-rule:evenodd;stroke:#000000;stroke-width:0.80000001;stroke-linecap:round;stroke-linejoin:round;stroke-miterlimit:4;stroke-dasharray:none;stroke-opacity:1" />
    <path
       id="path1703"
       d="m 220.02964,177.39688 c -5.64249,-3.17032 -7.07146,0.40099 -8.35218,4.2095 l 12.36122,34.41095 8.21854,-2.00452 z"
       style="fill:#709ad0;fill-opacity:1;fill-rule:evenodd;stroke:#000000;stroke-width:0.80000001;stroke-linecap:round;stroke-linejoin:round;stroke-miterlimit:4;stroke-dasharray:none;stroke-opacity:1" />
    <path
       id="path1705"
       d="m 211.67746,181.60638 c -4.82757,-1.94623 -7.91221,-0.6818 -9.35443,3.60814 l 11.82668,33.54232 9.88897,-2.73951 z"
       style="fill:#709ad0;fill-opacity:1;fill-rule:evenodd;stroke:#000000;stroke-width:0.80000001;stroke-linecap:round;stroke-linejoin:round;stroke-miterlimit:4;stroke-dasharray:none;stroke-opacity:1" />
    <path
       id="path1707"
       d="m 202.32303,185.21452 c -5.67043,-2.51891 -7.62019,0.31996 -8.88671,4.14268 l 10.69078,31.5378 10.02261,-2.13816 z"
       style="fill:#709ad0;fill-opacity:1;fill-rule:evenodd;stroke:#000000;stroke-width:0.80000001;stroke-linecap:round;stroke-linejoin:round;stroke-miterlimit:4;stroke-dasharray:none;stroke-opacity:1" />
    <path
       id="path1709"
       d="m 193.43632,189.3572 c -2.52222,-1.29043 -5.0655,-2.35983 -8.28536,3.67495 l 11.75986,29.80055 7.21628,-1.9377 z"
       style="fill:#709ad0;fill-opacity:1;fill-rule:evenodd;stroke:#000000;stroke-width:0.80000001;stroke-linecap:round;stroke-linejoin:round;stroke-miterlimit:4;stroke-dasharray:none;stroke-opacity:1" />
    <path
       id="path1711"
       d="m 185.15096,193.03215 -3.67495,-3.20723 61.47199,-28.26376 1.26953,5.07813 c -3.52319,-0.48188 -7.62553,-2.25074 -8.08491,4.07586 -4.74173,-3.62615 -7.52887,-2.874 -7.81763,3.4745 -3.31068,-2.14586 -6.21831,-1.93108 -8.28535,3.20723 -6.41626,-3.39653 -6.61013,1.4294 -8.35218,4.2095 -5.06129,-1.85081 -8.03374,-0.41914 -9.35443,3.60814 -3.58056,-1.5046 -6.89301,-1.75803 -8.88671,4.14268 -4.27506,-2.45012 -6.47725,0.1339 -8.28536,3.67495 z"
       style="fill:#000000;fill-opacity:1;fill-rule:evenodd;stroke:#000000;stroke-width:0.80000001;stroke-linecap:round;stroke-linejoin:round;stroke-miterlimit:4;stroke-dasharray:none;stroke-opacity:1" />
    <path
       id="path1713"
       d="m 204.1271,220.895 -0.9649,3.62806 c 4.42035,-1.61121 8.69209,-3.70543 14.07961,-2.17336 3.27757,0.43565 6.56796,0.83283 9.35491,2.74033 l 3.77977,-10.67783 -6.33781,1.60513 -9.88897,2.73951 z"
       style="fill:#000000;fill-opacity:1;fill-rule:evenodd;stroke:#000000;stroke-width:0.80000001;stroke-linecap:round;stroke-linejoin:round;stroke-miterlimit:4;stroke-dasharray:none;stroke-opacity:1" />
    <path
       id="path1715"
       d="m 254.57422,207.73197 10.29258,-2.95816 c 5.24405,-0.76256 9.89498,-3.69989 16.53646,0.66146 l 6.14212,-13.98512 z"
       style="fill:#000000;fill-opacity:1;fill-rule:evenodd;stroke:#000000;stroke-width:0.80000001;stroke-linecap:round;stroke-linejoin:round;stroke-miterlimit:4;stroke-dasharray:none;stroke-opacity:1" />
    <path
       id="path1717"
       d="m 203.1622,224.52306 -27.49777,47.90847 5.66964,4.25225 35.90774,-54.33408 c -3.47367,-0.93855 -7.84219,-0.65685 -14.07961,2.17336 z"
       style="fill:#b2a6d8;fill-opacity:1;fill-rule:evenodd;stroke:#000000;stroke-width:0.80000001;stroke-linecap:round;stroke-linejoin:round;stroke-miterlimit:4;stroke-dasharray:none;stroke-opacity:1" />
    <path
       id="path1719"
       d="m 217.24181,222.3497 c 3.33424,0.48158 6.74974,0.80063 9.35491,2.74033 l -13.70163,33.63988 -5.57515,1.5119 -2.07887,8.50447 -9.92187,-3.59079 2.64583,14.55208 -10.48884,1.8899 -6.14212,-4.91369 z"
       style="fill:#2b4288;fill-opacity:1;fill-rule:evenodd;stroke:#000000;stroke-width:0.80000001;stroke-linecap:round;stroke-linejoin:round;stroke-miterlimit:4;stroke-dasharray:none;stroke-opacity:1" />
    <path
       id="path1721"
       d="m 212.89509,258.72991 -4.35804,11.00859 -3.29598,-0.99222 2.07887,-8.50447 z"
       style="fill:#000000;fill-opacity:1;fill-rule:evenodd;stroke:#000000;stroke-width:0.80000001;stroke-linecap:round;stroke-linejoin:round;stroke-miterlimit:4;stroke-dasharray:none;stroke-opacity:1" />
    <path
       id="path1723"
       d="m 208.53705,269.7385 24.67426,9.11865 31.65549,-74.08334 -10.29258,2.95816 -6.61492,2.33861 -8.48581,2.20498 -7.21627,1.73725 -1.88073,0.39939 z"
       style="fill:#b2a6d8;fill-opacity:1;fill-rule:evenodd;stroke:#000000;stroke-width:0.80000001;stroke-linecap:round;stroke-linejoin:round;stroke-miterlimit:4;stroke-dasharray:none;stroke-opacity:1" />
    <path
       id="path1725"
       d="m 264.8668,204.77381 c 5.21205,-0.92992 9.91411,-3.81479 16.53646,0.66146 l -31.46651,73.0439 -9.92187,2.9293 -6.80357,-2.55132 z"
       style="fill:#2b4288;fill-opacity:1;fill-rule:evenodd;stroke:#000000;stroke-width:0.80000001;stroke-linecap:round;stroke-linejoin:round;stroke-miterlimit:4;stroke-dasharray:none;stroke-opacity:1" />
    <path
       id="path1727"
       d="m 181.27555,262.85632 -26.72695,-5.67948 0.93544,3.14041 20.18039,12.11428 z"
       style="fill:#000000;fill-opacity:1;fill-rule:evenodd;stroke:#000000;stroke-width:0.80000001;stroke-linecap:round;stroke-linejoin:round;stroke-miterlimit:4;stroke-dasharray:none;stroke-opacity:1" />
    <path
       id="path1729"
       d="m 155.48404,260.31725 -5.67947,38.08591 21.24793,14.2321 16.42369,-31.03779 -11.81176,-9.16594 z"
       style="fill:#2b4288;fill-opacity:1;fill-rule:evenodd;stroke:#000000;stroke-width:0.80000001;stroke-linecap:butt;stroke-linejoin:miter;stroke-miterlimit:4;stroke-dasharray:none;stroke-opacity:1" />
    <path
       id="path1731"
       d="m 171.0525,312.63526 24.52198,-3.27406 7.28309,-9.22078 11.67817,-22.30374 -27.05955,3.76079 z"
       style="fill:#b2a6d8;fill-opacity:1;fill-rule:evenodd;stroke:#000000;stroke-width:0.80000001;stroke-linecap:round;stroke-linejoin:round;stroke-miterlimit:4;stroke-dasharray:none;stroke-opacity:1" />
    <path
       id="path1733"
       d="m 240.01488,281.40847 -0.94494,45.73514 -34.58482,-16.25298 -1.62755,-10.75021 -4.89254,-20.43285 -2.64583,-14.55208 z"
       style="fill:#2b4288;fill-opacity:1;fill-rule:evenodd;stroke:#000000;stroke-width:0.80000001;stroke-linecap:round;stroke-linejoin:round;stroke-miterlimit:4;stroke-dasharray:none;stroke-opacity:1" />
    <path
       id="path1735"
       d="m 240.01488,281.40847 9.92187,-2.9293 15.9695,-4.06326 -3.40179,42.42784 -23.43452,10.29986 z"
       style="fill:#b2a6d8;fill-opacity:1;fill-rule:evenodd;stroke:#000000;stroke-width:0.80000001;stroke-linecap:round;stroke-linejoin:round;stroke-miterlimit:4;stroke-dasharray:none;stroke-opacity:1" />
    <path
       id="path1737"
       d="m 249.93675,278.47917 4.8192,-10.96132 11.1503,6.89806 z"
       style="fill:#000000;fill-opacity:1;fill-rule:evenodd;stroke:#000000;stroke-width:0.80000001;stroke-linecap:butt;stroke-linejoin:miter;stroke-miterlimit:4;stroke-dasharray:none;stroke-opacity:1" />
    <path
       id="path921"
       d="m 154.41497,301.54358 -0.13364,14.29891 c 3.63381,-5.77088 12.10344,-3.58606 21.18111,-0.4009 9.91752,-0.14049 15.49219,4.4567 21.64883,8.41899 l -1.53679,-14.49938 -24.52198,3.27406 z"
       style="fill:#000000;fill-opacity:1;fill-rule:evenodd;stroke:#000000;stroke-width:0.80000001;stroke-linecap:round;stroke-linejoin:round;stroke-miterlimit:4;stroke-dasharray:none;stroke-opacity:1" />
    <path
       id="path923"
       d="m 211.38318,314.10341 2.92932,11.15031 c 11.08305,-3.75925 20.77246,1.59375 30.23809,8.40996 1.01654,-2.76583 1.81611,-6.14638 3.54353,-6.89806 5.51583,-3.40923 11.50897,-3.40911 17.90661,-0.51972 l -3.49627,-9.40215 -23.43452,10.29986 z"
       style="fill:#000000;fill-opacity:1;fill-rule:evenodd;stroke:#000000;stroke-width:0.80000001;stroke-linecap:round;stroke-linejoin:round;stroke-miterlimit:4;stroke-dasharray:none;stroke-opacity:1" />
    <path
       id="path931"
       d="m 215.2856,416.2022 -83.12082,-2.27179 21.31474,-31.60462 56.19342,7.01583 z"
       style="fill:#2b4288;fill-opacity:1;fill-rule:evenodd;stroke:#000000;stroke-width:0.80000001;stroke-linecap:round;stroke-linejoin:round;stroke-miterlimit:4;stroke-dasharray:none;stroke-opacity:1" />
    <path
       id="path925"
       d="m 154.28133,315.84249 0.0668,85.12534 c 7.01209,6.61508 14.69622,9.19792 22.58428,10.55717 l -1.46999,-96.08341 c -9.91868,-3.74937 -17.91212,-4.88331 -21.18109,0.4009 z"
       style="fill:#b2a6d8;fill-opacity:1;fill-rule:evenodd;stroke:#000000;stroke-width:0.80000001;stroke-linecap:round;stroke-linejoin:round;stroke-miterlimit:4;stroke-dasharray:none;stroke-opacity:1" />
    <path
       id="path927"
       d="m 175.46242,315.44159 c 8.43852,-0.24926 15.1403,3.84333 21.64885,8.41899 l 14.56619,75.23639 c -7.78917,11.72771 -20.99463,12.62282 -34.74505,12.42803 z"
       style="fill:#2b4288;fill-opacity:1;fill-rule:evenodd;stroke:#000000;stroke-width:0.80000001;stroke-linecap:round;stroke-linejoin:round;stroke-miterlimit:4;stroke-dasharray:none;stroke-opacity:1" />
    <path
       id="path929"
       d="m 209.67294,389.34162 10.95805,-36.21503 12.96258,31.67145 -18.30797,31.40416 z"
       style="fill:#b2a6d8;fill-opacity:1;fill-rule:evenodd;stroke:#000000;stroke-width:0.80000001;stroke-linecap:round;stroke-linejoin:round;stroke-miterlimit:4;stroke-dasharray:none;stroke-opacity:1" />
    <path
       id="path933"
       d="m 132.16478,413.93041 c -4.72531,-1.97574 -7.08136,-8.29514 -9.75534,-14.03165 -2.04625,-9.56932 4.12113,-20.21939 -10.0226,-28.19694 l -0.53454,-12.42803 7.61718,0.66818 4.27631,7.48355 16.70434,-16.03618 c 7.1022,2.47756 7.03481,11.16878 9.2208,17.90705 -0.12116,6.0815 -0.24398,12.16508 3.80859,13.02941 z"
       style="fill:#b2a6d8;fill-opacity:1;fill-rule:evenodd;stroke:#000000;stroke-width:0.80000001;stroke-linecap:round;stroke-linejoin:round;stroke-miterlimit:4;stroke-dasharray:none;stroke-opacity:1" />
    <path
       id="path935"
       d="m 119.46948,359.94197 28.59784,-27.52876 -5.47903,-2.27179 -34.07686,28.59783 3.34087,0.53454 z"
       style="fill:#b2a6d8;fill-opacity:1;fill-rule:evenodd;stroke:#000000;stroke-width:0.80000001;stroke-linecap:round;stroke-linejoin:round;stroke-miterlimit:4;stroke-dasharray:none;stroke-opacity:1" />
    <path
       id="path937"
       d="m 148.06732,332.41321 3.34087,12.16075 -10.95806,6.81538 -16.70434,16.03618 -4.27631,-7.48355 z"
       style="fill:#2b4288;fill-opacity:1;fill-rule:evenodd;stroke:#000000;stroke-width:0.80000001;stroke-linecap:round;stroke-linejoin:round;stroke-miterlimit:4;stroke-dasharray:none;stroke-opacity:1" />
    <path
       id="path945"
       d="m 335.69052,455.89174 -111.05049,-2.2718 17.77343,-35.81413 67.08464,6.1472 2.40543,5.07812 z"
       style="fill:#2b4288;fill-opacity:1;fill-rule:evenodd;stroke:#000000;stroke-width:0.80000001;stroke-linecap:round;stroke-linejoin:round;stroke-miterlimit:4;stroke-dasharray:none;stroke-opacity:1" />
    <path
       id="path939"
       d="m 214.3125,325.25372 39.87649,112.73139 c 19.45838,12.20822 28.50518,6.09207 39.49851,3.4018 L 248.09412,326.76562 c -2.42338,0.31183 -2.82216,3.86301 -3.54353,6.89806 -8.89665,-4.16344 -14.78681,-11.78434 -30.23809,-8.40996 z"
       style="fill:#b2a6d8;fill-opacity:1;fill-rule:evenodd;stroke:#000000;stroke-width:0.80000001;stroke-linecap:round;stroke-linejoin:round;stroke-miterlimit:4;stroke-dasharray:none;stroke-opacity:1" />
    <path
       id="path941"
       d="m 248.09412,326.76562 c 6.3351,-4.3849 12.28411,-4.32977 17.90661,-0.51972 l 45.9028,102.78523 c -4.46632,7.55935 -11.30879,10.02697 -18.21603,12.35578 z"
       style="fill:#2b4288;fill-opacity:1;fill-rule:evenodd;stroke:#000000;stroke-width:0.80000001;stroke-linecap:round;stroke-linejoin:round;stroke-miterlimit:4;stroke-dasharray:none;stroke-opacity:1" />
    <path
       id="path943"
       d="m 335.69052,455.89174 -23.78699,-26.86061 -2.40543,-5.07812 v -38.62044 l 29.13239,28.99876 z"
       style="fill:#b2a6d8;fill-opacity:1;fill-rule:evenodd;stroke:#000000;stroke-width:0.80000001;stroke-linecap:round;stroke-linejoin:round;stroke-miterlimit:4;stroke-dasharray:none;stroke-opacity:1" />
    <path
       id="path947"
       d="m 224.64003,453.61994 c -5.97594,-1.10534 -10.01287,-5.49209 -11.35895,-14.43257 l -0.80181,-13.76436 c -2.01822,-8.0845 -6.67742,-8.57618 -11.49259,-8.61944 l -1.5368,-9.6217 10.55715,1.87086 3.20723,6.48129 19.44386,-21.51518 c 3.23714,1.03917 5.39181,3.16081 5.07812,7.75081 l 1.33634,11.22531 c 0.39872,2.39702 1.52905,4.18022 3.34088,4.81085 z"
       style="fill:#b2a6d8;fill-opacity:1;fill-rule:evenodd;stroke:#000000;stroke-width:0.80000001;stroke-linecap:round;stroke-linejoin:round;stroke-miterlimit:4;stroke-dasharray:none;stroke-opacity:1" />
    <path
       id="path949"
       d="m 213.21426,415.53402 23.4529,-26.72694 -2.80633,-9.6217 -23.8538,29.86735 z"
       style="fill:#2b4288;fill-opacity:1;fill-rule:evenodd;stroke:#000000;stroke-width:0.80000001;stroke-linecap:round;stroke-linejoin:round;stroke-miterlimit:4;stroke-dasharray:none;stroke-opacity:1" />
    <path
       id="path951"
       d="m 210.00703,409.05273 -10.55715,-1.87086 25.99196,-32.00554 8.41899,4.00905 z"
       style="fill:#b2a6d8;fill-opacity:1;fill-rule:evenodd;stroke:#000000;stroke-width:0.80000001;stroke-linecap:round;stroke-linejoin:round;stroke-miterlimit:4;stroke-dasharray:none;stroke-opacity:1" />
  </g>
</svg>
