<?xml version="1.0" encoding="UTF-8" standalone="no"?>
<!-- Created with Inkscape (http://www.inkscape.org/) -->

<svg
   width="210mm"
   height="297mm"
   viewBox="0 0 210 297"
   version="1.1"
   id="svg331"
   inkscape:version="1.2.1 (9c6d41e410, 2022-07-14)"
   sodipodi:docname="plombo-head.svg"
   xmlns:inkscape="http://www.inkscape.org/namespaces/inkscape"
   xmlns:sodipodi="http://sodipodi.sourceforge.net/DTD/sodipodi-0.dtd"
   xmlns="http://www.w3.org/2000/svg"
   xmlns:svg="http://www.w3.org/2000/svg">
  <sodipodi:namedview
     id="namedview333"
     pagecolor="#505050"
     bordercolor="#eeeeee"
     borderopacity="1"
     inkscape:showpageshadow="0"
     inkscape:pageopacity="0"
     inkscape:pagecheckerboard="0"
     inkscape:deskcolor="#505050"
     inkscape:document-units="mm"
     showgrid="false"
     inkscape:zoom="0.74564394"
     inkscape:cx="396.97231"
     inkscape:cy="481.46304"
     inkscape:window-width="1920"
     inkscape:window-height="1017"
     inkscape:window-x="1912"
     inkscape:window-y="-8"
     inkscape:window-maximized="1"
     inkscape:current-layer="layer1" />
  <defs
     id="defs328" />
  <g
     inkscape:label="Calque 1"
     inkscape:groupmode="layer"
     id="layer1">
    <path
       style="display:inline;fill:#f0f0f0;fill-opacity:1;fill-rule:evenodd;stroke:#000000;stroke-width:0.8;stroke-linecap:butt;stroke-linejoin:miter;stroke-miterlimit:4;stroke-dasharray:none;stroke-opacity:1"
       d="m 29.422391,2.8633631 2.26785,87.5014799 13.41816,0.75596 36.85268,-2.26786 c 3.675134,-0.87129 7.855844,-0.95782 13.040184,0.18899 l 30.427075,1.70089 c 2.66701,-1.21862 5.38119,-1.30303 7.55952,-0.56696 l 38.17561,1.5119 10.7723,-0.18899 0.94493,-91.09224995 z"
       id="path4521"
       inkscape:connector-curvature="0"
       sodipodi:nodetypes="ccccccccccc" />
    <path
       style="display:inline;fill:#84a8e2;fill-opacity:1;fill-rule:evenodd;stroke:#000000;stroke-width:0.8;stroke-linecap:butt;stroke-linejoin:miter;stroke-miterlimit:4;stroke-dasharray:none;stroke-opacity:1"
       d="m 30.556321,30.644613 88.635409,-9.07143 -6.04762,-5.48066 69.16964,-7.9374995 V 20.439253 l -49.70386,7.55952 4.34672,4.72471 -106.211309,12.851186 z"
       id="path4523"
       inkscape:connector-curvature="0" />
    <path
       style="display:inline;fill:#dbb5e6;fill-opacity:1;fill-rule:evenodd;stroke:#000000;stroke-width:0.8;stroke-linecap:round;stroke-linejoin:round;stroke-miterlimit:4;stroke-dasharray:none;stroke-opacity:1"
       d="M 31.690241,90.364843 C 11.916521,101.67021 8.1101811,114.97149 5.1124511,128.37385 c -1.58964,9.81807 -0.80653,18.44977 4.01033,25.06459 11.9600599,13.05612 25.4108899,17.91303 39.5017799,19.2496 29.01895,1.17776 59.027289,4.18631 87.425269,1.60413 27.46567,-2.86797 54.94615,-12.23708 60.95708,-17.64547 6.39321,-4.44523 12.89048,-11.84597 12.2315,-28.47336 -0.67669,-13.02529 -6.82341,-20.58053 -13.83564,-27.27027 l -13.467,-9.404297 -48.94791,-1.32291 c -2.86703,-1.3155 -5.25263,-0.54483 -7.55952,0.56696 l -30.427075,-1.70089 c -4.99328,-1.74405 -8.95617,-0.80905 -13.040184,-0.18899 l -36.85268,2.26786 z"
       id="path4594"
       inkscape:connector-curvature="0"
       sodipodi:nodetypes="ccccccccccccccc" />
    <path
       style="display:inline;fill:#eca725;fill-opacity:1;fill-rule:evenodd;stroke:#000000;stroke-width:0.8;stroke-linecap:butt;stroke-linejoin:miter;stroke-miterlimit:4;stroke-dasharray:none;stroke-opacity:1"
       d="m 44.541441,100.5702 c 1.15692,-10.085107 2.80422,-20.292817 -1.88989,-28.915177 9.95767,-2.565018 18.00992,-6.823745 23.43453,-13.418153 3.68702,9.164173 9.70947,15.992913 21.922624,16.630953 -3.31458,7.65871 -9.130074,11.95637 -5.10268,29.482137 -8.964554,-0.85717 -15.917274,2.30931 -21.355664,8.50447 -5.1565,-8.9696 -10.84456,-12.88937 -17.00892,-12.28423 z"
       id="path4525"
       inkscape:connector-curvature="0"
       sodipodi:nodetypes="ccccccc" />
    <g
       style="display:inline"
       id="g4607"
       transform="translate(-104.57017,139.96901)">
      <path
         sodipodi:nodetypes="cc"
         inkscape:connector-curvature="0"
         id="path4596"
         d="m 133.14307,-22.22254 c 6.54037,-3.57978 12.10593,-4.235133 17.04391,-3.00775"
         style="fill:none;fill-rule:evenodd;stroke:#000000;stroke-width:0.8;stroke-linecap:round;stroke-linejoin:miter;stroke-miterlimit:4;stroke-dasharray:none;stroke-opacity:1" />
      <path
         sodipodi:nodetypes="cc"
         inkscape:connector-curvature="0"
         id="path4598"
         d="m 273.50474,-31.245791 c 4.60152,-0.941036 8.86719,-2.486604 16.04134,1.2031"
         style="fill:none;fill-rule:evenodd;stroke:#000000;stroke-width:0.8;stroke-linecap:round;stroke-linejoin:miter;stroke-miterlimit:4;stroke-dasharray:none;stroke-opacity:1" />
      <path
         sodipodi:nodetypes="cccccc"
         inkscape:connector-curvature="0"
         id="path4600"
         d="m 279.39068,-32.157818 c 5.14712,10.398467 -0.14221,16.696899 -5.31698,23.0403376 -14.93275,11.048738 -27.69232,11.2316186 -41.25995,15.4547499 -19.90986,1.9228942 -39.52488,3.0791942 -57.56539,0.1417868 -11.93867,-0.966939 -21.38014,-5.88776517 -28.7827,-14.0368831 -2.97591,-6.2520592 -3.40982,-12.1409762 -3.79805,-18.0233672"
         style="fill:none;fill-rule:evenodd;stroke:#000000;stroke-width:0.8;stroke-linecap:round;stroke-linejoin:miter;stroke-miterlimit:4;stroke-dasharray:none;stroke-opacity:1" />
    </g>
    <path
       style="display:inline;fill:#eca725;fill-opacity:1;fill-rule:evenodd;stroke:#000000;stroke-width:0.8;stroke-linecap:round;stroke-linejoin:miter;stroke-miterlimit:4;stroke-dasharray:none;stroke-opacity:1"
       d="m 94.623285,97.92437 c 1.41062,-24.599297 6.971105,-38.018437 16.441965,-40.443453 7.76194,1.829447 12.20451,17.084136 14.93005,41.577383 -10.45734,-5.893117 -20.91468,-5.820167 -31.372015,-1.13393 z"
       id="path4527"
       inkscape:connector-curvature="0"
       sodipodi:nodetypes="cccc" />
    <path
       style="display:inline;fill:#eca725;fill-opacity:1;fill-rule:evenodd;stroke:#000000;stroke-width:0.8;stroke-linecap:butt;stroke-linejoin:miter;stroke-miterlimit:4;stroke-dasharray:none;stroke-opacity:1"
       d="m 130.62701,72.814283 c 9.3561,-3.939361 15.29625,-10.243605 20.04522,-17.372519 5.04064,6.439049 11.73178,10.814968 22.45063,10.156241 -5.10079,13.648498 -5.76095,26.542748 -0.13363,30.869625 -8.45815,2.54768 -17.0557,4.87232 -22.04974,12.96257 -4.57234,-9.56335 -11.20266,-13.18145 -18.97613,-13.49711 3.06474,-8.325707 1.62162,-15.855927 -1.33635,-23.118807 z"
       id="path4545"
       inkscape:connector-curvature="0"
       sodipodi:nodetypes="ccccccc" />
    <ellipse
       style="display:inline;fill:#be293d;fill-opacity:1;fill-rule:nonzero;stroke:#000000;stroke-width:0.8;stroke-miterlimit:4;stroke-dasharray:none;stroke-opacity:1"
       id="path4553"
       cx="64.101707"
       cy="84.931435"
       rx="12.319313"
       ry="12.555549" />
    <ellipse
       style="display:inline;fill:#5065bb;fill-opacity:1;fill-rule:nonzero;stroke:#000000;stroke-width:0.8;stroke-miterlimit:4;stroke-dasharray:none;stroke-opacity:1"
       id="path4553-7"
       cx="151.13072"
       cy="82.04937"
       rx="12.319313"
       ry="12.55555" />
    <path
       style="display:inline;fill:#eca725;fill-opacity:1;fill-rule:evenodd;stroke:#000000;stroke-width:0.8;stroke-linecap:round;stroke-linejoin:miter;stroke-miterlimit:4;stroke-dasharray:none;stroke-opacity:1"
       d="m 94.694155,98.60945 c 1.24217,2.87917 6.277175,4.71446 15.709635,5.45703 6.96326,0.209 11.36451,-1.9093 15.35527,-4.3231 -5.16613,-3.95596 -10.95632,-4.42715 -16.4892,-4.96094 -5.75238,0.575 -11.172715,1.7322 -14.575705,3.82701 z"
       id="path4574"
       inkscape:connector-curvature="0"
       sodipodi:nodetypes="ccccc" />
    <path
       style="display:inline;fill:#f0f0f0;fill-opacity:1;fill-rule:evenodd;stroke:#000000;stroke-width:0.8;stroke-linecap:butt;stroke-linejoin:miter;stroke-miterlimit:4;stroke-dasharray:none;stroke-opacity:1"
       d="m 13.358401,25.730923 c -14.09095989,6.43178 -20.8585612,49.3597 1.70089,57.45238 19.19916,-4.0585 14.94075,-58.50383 -1.70089,-57.45238 z"
       id="path4578"
       inkscape:connector-curvature="0"
       sodipodi:nodetypes="ccc" />
    <path
       style="display:inline;fill:#eca725;fill-opacity:1;fill-rule:evenodd;stroke:#000000;stroke-width:0.2;stroke-linecap:butt;stroke-linejoin:miter;stroke-miterlimit:4;stroke-dasharray:none;stroke-opacity:0"
       d="m 22.618821,68.820203 c -0.75362,-9.355922 -1.1701,-18.554509 1.79538,-26.17485 -1.26902,-3.28985 -4.38597,-1.443866 -6.14211,-1.039435 -4.13422,2.521151 -5.81885,7.243464 -5.66964,13.040178 0.91532,10.997209 4.83407,14.220829 10.01637,14.174107 z"
       id="path4580"
       inkscape:connector-curvature="0"
       sodipodi:nodetypes="ccccc" />
    <path
       style="display:inline;fill:#000000;fill-opacity:1;fill-rule:evenodd;stroke:#000000;stroke-width:0.264583px;stroke-linecap:butt;stroke-linejoin:miter;stroke-opacity:1"
       d="m 22.618821,68.820203 8.51711,0.05185 -0.60136,-24.989699 -6.12037,-1.237004 c -2.78547,7.412746 -2.52816,16.651161 -1.79538,26.174853 z"
       id="path4584"
       inkscape:connector-curvature="0"
       sodipodi:nodetypes="ccccc" />
    <path
       style="display:inline;fill:#f0f0f0;fill-opacity:1;fill-rule:evenodd;stroke:#000000;stroke-width:0.8;stroke-linecap:butt;stroke-linejoin:miter;stroke-miterlimit:4;stroke-dasharray:none;stroke-opacity:1"
       d="m 206.03015,21.698993 c 15.41854,1.59629 20.97752,52.55058 -5.81499,59.45319 -19.12149,-5.31365 -13.14171,-57.64803 5.81499,-59.45319 z"
       id="path4586"
       inkscape:connector-curvature="0"
       sodipodi:nodetypes="ccc" />
    <path
       style="display:inline;fill:#eca725;fill-opacity:1;fill-rule:evenodd;stroke:#000000;stroke-width:0.2;stroke-linecap:butt;stroke-linejoin:miter;stroke-miterlimit:4;stroke-dasharray:none;stroke-opacity:0"
       d="m 192.33117,40.178942 -0.85072,27.648405 c 8.41488,-0.725221 14.16133,-8.201022 13.75331,-15.242072 -0.78015,-10.476561 -7.65884,-12.786882 -12.90259,-12.406333 z"
       id="path4588"
       inkscape:connector-curvature="0"
       sodipodi:nodetypes="cccc" />
    <path
       style="display:inline;fill:#000000;fill-opacity:1;fill-rule:evenodd;stroke:#000000;stroke-width:0.790101;stroke-linecap:butt;stroke-linejoin:miter;stroke-miterlimit:4;stroke-dasharray:none;stroke-opacity:1"
       d="m 192.07836,40.178944 -9.54268,-1.843231 -0.48405,31.334861 9.19694,-1.843225 z"
       id="path4590"
       inkscape:connector-curvature="0" />
    <path
       style="display:inline;fill:#dbb5e6;fill-opacity:1;fill-rule:evenodd;stroke:#000000;stroke-width:0.8;stroke-linecap:round;stroke-linejoin:round;stroke-miterlimit:4;stroke-dasharray:none;stroke-opacity:1"
       d="m 68.074681,205.37225 c 3.53947,-10.33573 12.59802,-19.86379 9.26748,-31.20488 34.317369,1.92855 50.394789,1.312 60.472029,-0.14179 -4.89048,9.10607 -2.06204,19.64157 3.1902,30.62592 z"
       id="path4629"
       inkscape:connector-curvature="0"
       sodipodi:nodetypes="ccccc" />
  </g>
</svg>
